<mxfile host="app.diagrams.net" modified="2022-09-03T04:26:05.939Z" agent="5.0 (Macintosh; Intel Mac OS X 10_15_7) AppleWebKit/537.36 (KHTML, like Gecko) Chrome/103.0.0.0 Safari/537.36" etag="LEUJsCN_JdXzk5ee16vH" version="20.2.8" type="github">
  <diagram name="Page-1" id="e3a06f82-3646-2815-327d-82caf3d4e204">
    <mxGraphModel dx="1248" dy="809" grid="1" gridSize="10" guides="1" tooltips="1" connect="1" arrows="1" fold="1" page="1" pageScale="1.5" pageWidth="1169" pageHeight="826" background="none" math="0" shadow="0">
      <root>
        <mxCell id="0" style=";html=1;" />
        <mxCell id="1" style=";html=1;" parent="0" />
        <mxCell id="Kz6HAZFZpjECSfvnLKbt-11" value="ISP" style="whiteSpace=wrap;html=1;fillColor=#EDEDED;fontSize=14;strokeColor=none;verticalAlign=top;" vertex="1" parent="1">
          <mxGeometry x="599" y="390.75" width="261" height="242" as="geometry" />
        </mxCell>
        <mxCell id="6a7d8f32e03d9370-61" value="グーグル" style="whiteSpace=wrap;html=1;fillColor=#f8cecc;fontSize=14;strokeColor=none;verticalAlign=top;" parent="1" vertex="1">
          <mxGeometry x="1400" y="220" width="310" height="330" as="geometry" />
        </mxCell>
        <mxCell id="6a7d8f32e03d9370-59" value="ISP" style="whiteSpace=wrap;html=1;fillColor=#EDEDED;fontSize=14;strokeColor=none;verticalAlign=top;" parent="1" vertex="1">
          <mxGeometry x="599" y="98" width="261" height="242" as="geometry" />
        </mxCell>
        <mxCell id="6a7d8f32e03d9370-57" value="Local Area Networks" style="whiteSpace=wrap;html=1;fillColor=#FFD470;gradientColor=none;fontSize=14;strokeColor=none;verticalAlign=top;" parent="1" vertex="1">
          <mxGeometry x="179" y="98" width="308" height="222" as="geometry" />
        </mxCell>
        <mxCell id="6a7d8f32e03d9370-33" style="edgeStyle=none;rounded=0;html=1;startSize=10;endSize=10;jettySize=auto;orthogonalLoop=1;fontSize=14;endArrow=none;endFill=0;strokeWidth=2;exitX=0.964;exitY=0.541;exitDx=0;exitDy=0;exitPerimeter=0;" parent="1" source="Kz6HAZFZpjECSfvnLKbt-10" edge="1">
          <mxGeometry relative="1" as="geometry">
            <mxPoint x="419" y="368.33361064891847" as="sourcePoint" />
            <mxPoint x="600" y="290" as="targetPoint" />
          </mxGeometry>
        </mxCell>
        <mxCell id="6a7d8f32e03d9370-32" style="edgeStyle=none;rounded=0;html=1;startSize=10;endSize=10;jettySize=auto;orthogonalLoop=1;fontSize=14;endArrow=none;endFill=0;strokeWidth=2;exitX=1.018;exitY=0.582;exitDx=0;exitDy=0;exitPerimeter=0;" parent="1" source="Kz6HAZFZpjECSfvnLKbt-1" edge="1">
          <mxGeometry relative="1" as="geometry">
            <mxPoint x="580" y="201" as="sourcePoint" />
            <mxPoint x="600" y="213" as="targetPoint" />
          </mxGeometry>
        </mxCell>
        <mxCell id="Kz6HAZFZpjECSfvnLKbt-9" value="" style="edgeStyle=orthogonalEdgeStyle;rounded=0;orthogonalLoop=1;jettySize=auto;html=1;" edge="1" parent="1" source="6a7d8f32e03d9370-5" target="Kz6HAZFZpjECSfvnLKbt-1">
          <mxGeometry relative="1" as="geometry" />
        </mxCell>
        <mxCell id="6a7d8f32e03d9370-5" value="Client" style="verticalLabelPosition=bottom;aspect=fixed;html=1;verticalAlign=top;strokeColor=none;shape=mxgraph.citrix.desktop;fillColor=#66B2FF;gradientColor=#0066CC;fontSize=14;" parent="1" vertex="1">
          <mxGeometry x="322.50000000000006" y="160.00000000000006" width="89" height="98" as="geometry" />
        </mxCell>
        <mxCell id="6a7d8f32e03d9370-44" style="edgeStyle=none;rounded=0;html=1;startSize=10;endSize=10;jettySize=auto;orthogonalLoop=1;fontSize=14;endArrow=none;endFill=0;strokeWidth=2;" parent="1" source="6a7d8f32e03d9370-59" target="Kz6HAZFZpjECSfvnLKbt-25" edge="1">
          <mxGeometry relative="1" as="geometry">
            <mxPoint x="820.5914285714284" y="258" as="sourcePoint" />
            <mxPoint x="920" y="290" as="targetPoint" />
          </mxGeometry>
        </mxCell>
        <mxCell id="6a7d8f32e03d9370-46" style="edgeStyle=none;rounded=0;html=1;startSize=10;endSize=10;jettySize=auto;orthogonalLoop=1;fontSize=14;endArrow=none;endFill=0;strokeWidth=2;" parent="1" source="Kz6HAZFZpjECSfvnLKbt-11" target="Kz6HAZFZpjECSfvnLKbt-25" edge="1">
          <mxGeometry relative="1" as="geometry">
            <mxPoint x="834" y="544.2408088235295" as="sourcePoint" />
            <mxPoint x="973" y="595.1734068627452" as="targetPoint" />
          </mxGeometry>
        </mxCell>
        <mxCell id="6a7d8f32e03d9370-62" value="&amp;nbsp;Internet &lt;strike&gt;Architecture&lt;/strike&gt;" style="text;strokeColor=none;fillColor=none;html=1;fontSize=24;fontStyle=1;verticalAlign=middle;align=center;" parent="1" vertex="1">
          <mxGeometry x="515" y="20" width="861" height="40" as="geometry" />
        </mxCell>
        <mxCell id="Kz6HAZFZpjECSfvnLKbt-1" value="" style="verticalLabelPosition=bottom;aspect=fixed;html=1;verticalAlign=top;strokeColor=none;shape=mxgraph.citrix.router;fillColor=#66B2FF;gradientColor=#0066CC;fontSize=14;" vertex="1" parent="1">
          <mxGeometry x="460" y="190.75" width="55" height="36.5" as="geometry" />
        </mxCell>
        <mxCell id="Kz6HAZFZpjECSfvnLKbt-2" value="" style="verticalLabelPosition=bottom;sketch=0;aspect=fixed;html=1;verticalAlign=top;strokeColor=none;align=center;outlineConnect=0;shape=mxgraph.citrix.laptop_1;" vertex="1" parent="1">
          <mxGeometry x="207" y="227.25" width="91" height="77" as="geometry" />
        </mxCell>
        <mxCell id="Kz6HAZFZpjECSfvnLKbt-7" value="Local Area Networks" style="whiteSpace=wrap;html=1;fillColor=#FFD470;gradientColor=none;fontSize=14;strokeColor=none;verticalAlign=top;" vertex="1" parent="1">
          <mxGeometry x="179" y="338" width="308" height="142" as="geometry" />
        </mxCell>
        <mxCell id="Kz6HAZFZpjECSfvnLKbt-3" value="" style="verticalLabelPosition=bottom;sketch=0;aspect=fixed;html=1;verticalAlign=top;strokeColor=none;align=center;outlineConnect=0;shape=mxgraph.citrix.pda;" vertex="1" parent="1">
          <mxGeometry x="257" y="150" width="30" height="61" as="geometry" />
        </mxCell>
        <mxCell id="Kz6HAZFZpjECSfvnLKbt-5" value="" style="verticalLabelPosition=bottom;sketch=0;aspect=fixed;html=1;verticalAlign=top;strokeColor=none;align=center;outlineConnect=0;shape=mxgraph.citrix.pda;" vertex="1" parent="1">
          <mxGeometry x="322.5" y="384" width="30" height="61" as="geometry" />
        </mxCell>
        <mxCell id="Kz6HAZFZpjECSfvnLKbt-10" value="" style="verticalLabelPosition=bottom;aspect=fixed;html=1;verticalAlign=top;strokeColor=none;shape=mxgraph.citrix.router;fillColor=#66B2FF;gradientColor=#0066CC;fontSize=14;" vertex="1" parent="1">
          <mxGeometry x="460" y="390.75" width="55" height="36.5" as="geometry" />
        </mxCell>
        <mxCell id="Kz6HAZFZpjECSfvnLKbt-15" value="" style="verticalLabelPosition=bottom;sketch=0;aspect=fixed;html=1;verticalAlign=top;strokeColor=none;align=center;outlineConnect=0;shape=mxgraph.citrix.chassis;" vertex="1" parent="1">
          <mxGeometry x="660.75" y="140" width="137.5" height="177.5" as="geometry" />
        </mxCell>
        <mxCell id="Kz6HAZFZpjECSfvnLKbt-19" value="" style="verticalLabelPosition=bottom;sketch=0;aspect=fixed;html=1;verticalAlign=top;strokeColor=none;align=center;outlineConnect=0;shape=mxgraph.citrix.chassis;" vertex="1" parent="1">
          <mxGeometry x="660.75" y="427.25" width="137.5" height="177.5" as="geometry" />
        </mxCell>
        <mxCell id="Kz6HAZFZpjECSfvnLKbt-20" value="" style="verticalLabelPosition=bottom;sketch=0;aspect=fixed;html=1;verticalAlign=top;strokeColor=none;align=center;outlineConnect=0;shape=mxgraph.citrix.chassis;" vertex="1" parent="1">
          <mxGeometry x="1540" y="290" width="137.5" height="177.5" as="geometry" />
        </mxCell>
        <mxCell id="Kz6HAZFZpjECSfvnLKbt-21" value="" style="verticalLabelPosition=bottom;sketch=0;aspect=fixed;html=1;verticalAlign=top;strokeColor=none;align=center;outlineConnect=0;shape=mxgraph.citrix.router;" vertex="1" parent="1">
          <mxGeometry x="1420" y="290" width="55" height="36.5" as="geometry" />
        </mxCell>
        <mxCell id="Kz6HAZFZpjECSfvnLKbt-22" value="" style="verticalLabelPosition=bottom;sketch=0;aspect=fixed;html=1;verticalAlign=top;strokeColor=none;align=center;outlineConnect=0;shape=mxgraph.citrix.router;" vertex="1" parent="1">
          <mxGeometry x="1420" y="360.5" width="55" height="36.5" as="geometry" />
        </mxCell>
        <mxCell id="Kz6HAZFZpjECSfvnLKbt-23" value="" style="verticalLabelPosition=bottom;sketch=0;aspect=fixed;html=1;verticalAlign=top;strokeColor=none;align=center;outlineConnect=0;shape=mxgraph.citrix.router;" vertex="1" parent="1">
          <mxGeometry x="1420" y="431" width="55" height="36.5" as="geometry" />
        </mxCell>
        <mxCell id="Kz6HAZFZpjECSfvnLKbt-24" value="DNS server" style="verticalLabelPosition=bottom;sketch=0;aspect=fixed;html=1;verticalAlign=top;strokeColor=none;align=center;outlineConnect=0;shape=mxgraph.citrix.dns_server;" vertex="1" parent="1">
          <mxGeometry x="920" y="118.25" width="90.14" height="109" as="geometry" />
        </mxCell>
        <mxCell id="Kz6HAZFZpjECSfvnLKbt-25" value="GFW" style="verticalLabelPosition=bottom;sketch=0;aspect=fixed;html=1;verticalAlign=top;strokeColor=none;align=center;outlineConnect=0;shape=mxgraph.citrix.firewall;" vertex="1" parent="1">
          <mxGeometry x="950" y="276.75" width="220.37" height="273.25" as="geometry" />
        </mxCell>
        <mxCell id="Kz6HAZFZpjECSfvnLKbt-26" style="edgeStyle=none;rounded=0;html=1;startSize=10;endSize=10;jettySize=auto;orthogonalLoop=1;fontSize=14;endArrow=none;endFill=0;strokeWidth=2;entryX=1;entryY=0.397;entryDx=0;entryDy=0;entryPerimeter=0;" edge="1" parent="1" source="Kz6HAZFZpjECSfvnLKbt-24" target="6a7d8f32e03d9370-59">
          <mxGeometry relative="1" as="geometry">
            <mxPoint x="920" y="717.1108088235295" as="sourcePoint" />
            <mxPoint x="920" y="710" as="targetPoint" />
          </mxGeometry>
        </mxCell>
        <mxCell id="Kz6HAZFZpjECSfvnLKbt-27" value="DNS server" style="verticalLabelPosition=bottom;sketch=0;aspect=fixed;html=1;verticalAlign=top;strokeColor=none;align=center;outlineConnect=0;shape=mxgraph.citrix.dns_server;" vertex="1" parent="1">
          <mxGeometry x="810.38" y="100" width="49.62" height="60" as="geometry" />
        </mxCell>
        <mxCell id="Kz6HAZFZpjECSfvnLKbt-29" value="" style="shape=flexArrow;endArrow=classic;startArrow=classic;html=1;rounded=0;" edge="1" parent="1">
          <mxGeometry width="100" height="100" relative="1" as="geometry">
            <mxPoint x="1180" y="420" as="sourcePoint" />
            <mxPoint x="1390" y="420" as="targetPoint" />
          </mxGeometry>
        </mxCell>
        <mxCell id="Kz6HAZFZpjECSfvnLKbt-31" value="peace submarine cable" style="edgeLabel;html=1;align=center;verticalAlign=middle;resizable=0;points=[];fontStyle=1" vertex="1" connectable="0" parent="Kz6HAZFZpjECSfvnLKbt-29">
          <mxGeometry x="0.3667" y="-3" relative="1" as="geometry">
            <mxPoint x="-34" y="-14" as="offset" />
          </mxGeometry>
        </mxCell>
        <mxCell id="Kz6HAZFZpjECSfvnLKbt-33" value="DNS server" style="verticalLabelPosition=bottom;sketch=0;aspect=fixed;html=1;verticalAlign=top;strokeColor=none;align=center;outlineConnect=0;shape=mxgraph.citrix.dns_server;" vertex="1" parent="1">
          <mxGeometry x="1397.88" y="70.75" width="82.08" height="99.25" as="geometry" />
        </mxCell>
        <mxCell id="Kz6HAZFZpjECSfvnLKbt-34" style="edgeStyle=none;rounded=0;html=1;startSize=10;endSize=10;jettySize=auto;orthogonalLoop=1;fontSize=14;endArrow=none;endFill=0;strokeWidth=2;" edge="1" parent="1" source="Kz6HAZFZpjECSfvnLKbt-33" target="Kz6HAZFZpjECSfvnLKbt-25">
          <mxGeometry relative="1" as="geometry">
            <mxPoint x="1160" y="220" as="sourcePoint" />
            <mxPoint x="1070.37" y="280.14399999999995" as="targetPoint" />
          </mxGeometry>
        </mxCell>
      </root>
    </mxGraphModel>
  </diagram>
</mxfile>
